<svg id="Layer_1" data-name="Layer 1" xmlns="http://www.w3.org/2000/svg" viewBox="0 0 400 75.49"><defs><style>.cls-1{fill:#020000;}</style></defs><title>SM_logo_SVG</title><path class="cls-1" d="M124.5,50.61a8.54,8.54,0,0,1-3.22,7q-3.22,2.57-9,2.57a21,21,0,0,1-9.35-2v-6.5a38.61,38.61,0,0,0,5.66,2.1,16.8,16.8,0,0,0,4.24.61,6,6,0,0,0,3.53-.88,3,3,0,0,0,1.23-2.62,2.9,2.9,0,0,0-.54-1.73,6.08,6.08,0,0,0-1.59-1.46,41.7,41.7,0,0,0-4.28-2.23,20.29,20.29,0,0,1-4.54-2.73,10.21,10.21,0,0,1-2.42-3,8.71,8.71,0,0,1-.9-4.07,8.53,8.53,0,0,1,3-6.89q3-2.51,8.21-2.51a19.3,19.3,0,0,1,4.91.61,33.64,33.64,0,0,1,4.89,1.72l-2.26,5.44a33,33,0,0,0-4.37-1.51,14.12,14.12,0,0,0-3.4-.43,4.49,4.49,0,0,0-3,.93,3.05,3.05,0,0,0-1.06,2.42,3,3,0,0,0,.43,1.61A4.69,4.69,0,0,0,112,38.4a42,42,0,0,0,4.44,2.31q4.63,2.22,6.34,4.44A8.65,8.65,0,0,1,124.5,50.61Z"/><path class="cls-1" d="M145.07,59.78h-7V32.59h-9V26.76H154v5.83h-9Z"/><path class="cls-1" d="M189.07,43.22q0,8.2-4.07,12.6t-11.65,4.4q-7.59,0-11.65-4.4t-4.07-12.64q0-8.24,4.08-12.59t11.69-4.35q7.61,0,11.64,4.38T189.07,43.22Zm-24.09,0q0,5.53,2.1,8.33a7.35,7.35,0,0,0,6.28,2.8q8.38,0,8.38-11.13T173.4,32.07a7.4,7.4,0,0,0-6.3,2.81Q165,37.69,165,43.22Z"/><path class="cls-1" d="M202,47.11V59.78h-7v-33h9.62q6.73,0,10,2.45t3.23,7.44a8.76,8.76,0,0,1-1.6,5.18,10.59,10.59,0,0,1-4.54,3.56q7.45,11.13,9.71,14.39H213.6l-7.88-12.67Zm0-5.69h2.26a8.64,8.64,0,0,0,4.9-1.11,4,4,0,0,0,1.58-3.48,3.62,3.62,0,0,0-1.62-3.34,9.79,9.79,0,0,0-5-1H202Z"/><path class="cls-1" d="M244.53,59.78h-19v-33h19V32.5h-12v7.25H243.7v5.74H232.52V54h12Z"/><path class="cls-1" d="M266.41,59.78l-11.2-29.26H255q.32,3.48.32,8.26v21H251.8v-33h5.78L268,54h.18l10.55-27.23h5.74v33h-3.84V38.51q0-3.66.32-7.95h-.18L269.51,59.78Z"/><path class="cls-1" d="M314.31,59.78l-4.11-10.5H297l-4.06,10.5H289l13-33.15h3.23l13,33.15Zm-5.31-14-3.84-10.23q-.74-1.94-1.54-4.76a42.68,42.68,0,0,1-1.42,4.76l-3.88,10.23Z"/><path class="cls-1" d="M339.82,26.76H344l-11.9,33h-3.79l-11.83-33h4.06l7.59,21.36a60.2,60.2,0,0,1,2.08,7.16A59.68,59.68,0,0,1,332.28,48Z"/><path class="cls-1" d="M366.9,59.78h-18.4v-33h18.4v3.41H352.33V40.81H366v3.39H352.33V56.34H366.9Z"/><path class="cls-1" d="M400,59.78h-4.38l-18-27.71h-.18q.36,4.88.36,8.94V59.78h-3.55v-33h4.34l18,27.59h.18q0-.61-.2-3.92t-.11-4.73V26.76H400Z"/><polygon class="cls-1" points="25.96 75.5 53.16 75.5 51.3 69.31 46.56 69.31 41.62 14.52 36.68 14.52 32.14 68.9 27.61 68.9 25.96 75.5"/><circle class="cls-1" cx="39.3" cy="9.88" r="5.72"/><path class="cls-1" d="M17.92,17.09a1.55,1.55,0,0,1-1.42-.93L11.86,5.44l-4.58,10a1.55,1.55,0,0,1-2.81-1.29L10.49,1A1.57,1.57,0,0,1,11.91.1a1.55,1.55,0,0,1,1.4.93l6,13.9a1.54,1.54,0,0,1-.8,2A1.53,1.53,0,0,1,17.92,17.09Z"/><path class="cls-1" d="M61.09,32a1.55,1.55,0,0,1-1.41-2.17l5.25-11.9a1.55,1.55,0,0,1,2.84,0l4.94,11.74a1.55,1.55,0,0,1-2.85,1.2l-3.55-8.44L62.5,31.06A1.55,1.55,0,0,1,61.09,32Z"/><path class="cls-1" d="M0,45.06s0,1.85,1.7,1.85H6.18s2.16.15,2.32-1.55V42.12S8.19,40,9.73,40h1.7v-8h-2s-1.55,0-1.39-2.16V25.13S7.88,22.35,10.2,22h1.24V13.69H6.18A9.38,9.38,0,0,0,0,23Z"/><path class="cls-1" d="M22.56,45.06s0,1.85-1.7,1.85H16.38s-2.16.15-2.32-1.55V42.12S14.37,40,12.82,40h-1.7v-8h2s1.55,0,1.39-2.16V25.13s.15-2.78-2.16-3.09H11.12V13.69h5.25A9.38,9.38,0,0,1,22.56,23Z"/><path class="cls-1" d="M61.71,58.31H68c3.45,0,8.08-.61,8.34-5.9,0-.25.22-6.2-6.63-6.77H61.71Zm7.42-9.89c4.33.15,3.86,3.86,3.86,3.86-.46,3.55-4.17,3.09-4.17,3.09h-4V48.27Z"/><path class="cls-1" d="M75.3,44.71A7.66,7.66,0,0,0,78.55,37c0-6.8-9.73-7.88-9.73-7.88h-6c-6.49.15-5.56,4.48-5.56,4.48l-.15,25.49a3.26,3.26,0,0,0,3.09,3.09h11c8.19-.31,9.42-8,9.42-8C81.48,46.72,75.3,44.71,75.3,44.71Zm2.32,7.76c-.23,4.69-3.46,7.07-9.58,7.07h-7a.62.62,0,0,1-.62-.62V32.82a.62.62,0,0,1,.61-.62L68.64,32c5.1.49,7,3.62,7.12,6.15.17,4-1.73,5.82-3.42,6.69C77.85,46.68,77.62,52.41,77.62,52.47Z"/><path class="cls-1" d="M74.53,38.25c-.09-2-1.69-4.56-5.93-5l-6.89.15v11h8.06C70.05,44.38,74.78,44,74.53,38.25ZM65.1,36.06l2.63-.15c3.71,0,3.55,3.09,3.55,3.09-.15,2.78-3.09,2.78-3.09,2.78H65.1Z"/><line class="cls-1" x1="11.54" y1="0.92" x2="66.75" y2="17.81"/><path class="cls-1" d="M66.75,18.73a.92.92,0,0,1-.27,0L11.27,1.8A.92.92,0,0,1,11.81,0L67,16.93a.92.92,0,0,1-.27,1.8Z"/></svg>