<svg id="Layer_1" data-name="Layer 1" xmlns="http://www.w3.org/2000/svg" viewBox="0 0 400 383.48"><defs><style>.cls-1{fill:#8f8f8f;fill-rule:evenodd;}</style></defs><title>x</title><path class="cls-1" d="M392,25.5l-9.6-9.43a27.51,27.51,0,0,0-38.41,0L200,157.56,56,16.07a27.5,27.5,0,0,0-38.41,0L8,25.5A26.34,26.34,0,0,0,8,63.23L152,204.72,17.56,336.77a26.34,26.34,0,0,0,0,37.73l9.6,9.43a27.51,27.51,0,0,0,38.41,0L200,251.88,334.43,383.93a27.51,27.51,0,0,0,38.41,0l9.6-9.43a26.34,26.34,0,0,0,0-37.73L248,204.72,392,63.23A26.34,26.34,0,0,0,392,25.5Z" transform="translate(0 -8.26)"/></svg>